<svg width="131" height="222" viewBox="0 0 131 222" fill="none" xmlns="http://www.w3.org/2000/svg">
<path d="M5.5 16.4889V30.6782H125.5V16.4889H5.5Z" fill="white"/>
<path d="M45.4693 3.55309V14.1893H56.1056V3.55309H45.4693Z" fill="white"/>
<path d="M74.8945 3.55309V14.1893H85.5308V3.55309H74.8945Z" fill="white"/>
<path d="M58.4053 0V14.1893H72.5947V0H58.4053Z" fill="white"/>
<path d="M23.1272 32.978H8.93781V88.5625H23.1272V32.978Z" fill="white"/>
<path d="M39.6163 32.978H25.427V88.5625H39.6163V32.978Z" fill="white"/>
<path d="M56.1055 32.978H41.9162V88.5625H56.1055V32.978Z" fill="white"/>
<path d="M72.5947 32.978H58.4053V88.5625H72.5947V32.978Z" fill="white"/>
<path d="M89.0839 32.978H74.8945V88.5625H89.0839V32.978Z" fill="white"/>
<path d="M105.572 32.9785H91.3828V88.563H105.572V32.9785Z" fill="#FF0000"/>
<path d="M122.061 32.9785H107.872V88.563H122.061V32.9785Z" fill="#FF0000"/>
<g clip-path="url(#clip0_137_8223)">
<path d="M0.97848 138.475V135.295C5.38113 135.185 6.68562 133.851 7.00592 130.852H10.1099V155.806H6.20809V137.287C5.12489 138.3 3.20893 138.481 0.972656 138.481L0.97848 138.475ZM14.3087 155.806V150.262H16.1548V148.404H18.0009V146.558H19.847V144.712H21.7047V142.854H23.5508V141.008H25.3969V139.162H27.2546V135.453H25.3969V133.607H19.8412V135.453H17.9951V137.31H14.3029V133.601H16.149V131.749H17.9951V129.891H27.2605V131.749H29.1065V133.595H30.9526V140.997H29.1065V142.843H27.2605V144.701H25.4027V146.547H23.5566V148.393H21.7106V150.25H19.8528V152.097H30.9643V155.789H14.3087V155.806ZM33.9169 151.869H37.8536V155.806H33.9169V151.869ZM39.6589 143.349C39.6589 136.198 42.6173 130.351 49.5882 130.351C56.5591 130.351 59.4825 136.198 59.4825 143.349C59.4825 150.501 56.5591 156.313 49.5882 156.313C42.6173 156.313 39.6589 150.501 39.6589 143.349ZM49.5882 152.953C54.0666 152.953 55.4002 148.474 55.4002 143.349C55.4002 138.225 54.0666 133.711 49.5882 133.711C45.1098 133.711 43.7413 138.225 43.7413 143.349C43.7413 148.474 45.0749 152.953 49.5882 152.953ZM66.2146 155.806V153.96H64.3685V152.114H62.5225V148.404H66.2146V150.262H68.0607V152.108H73.6164V150.262H75.4742V144.706H73.6164V146.552H66.2146V144.706H64.3685V142.849H62.5225V133.601H64.3685V131.749H66.2146V129.891H75.48V131.749H77.3261V133.595H79.1722V152.108H77.3261V153.954H75.48V155.8H66.2146V155.806ZM73.6164 142.849V141.003H75.4742V135.447H73.6164V133.601H68.0607V135.447H66.2146V141.003H68.0607V142.849H73.6164ZM82.1247 151.869H86.0615V155.806H82.1247V151.869ZM89.1713 155.806V150.262H91.0174V148.404H92.8635V146.558H94.7096V144.712H96.5673V142.854H98.4134V141.008H100.259V139.162H102.117V135.453H100.259V133.607H94.7038V135.453H92.8577V137.31H89.1597V133.601H91.0058V131.749H92.8518V129.891H102.111V131.749H103.957V133.595H105.804V140.997H103.957V142.843H102.111V144.701H100.254V146.547H98.4076V148.393H96.5615V150.25H94.7038V152.097H105.815V155.789H89.1597L89.1713 155.806ZM109.001 155.806V150.262H110.847V148.404H112.693V146.558H114.539V144.712H116.397V142.854H118.243V141.008H120.089V139.162H121.947V135.453H120.089V133.607H114.533V135.453H112.687V137.31H108.995V133.601H110.841V131.749H112.687V129.891H121.952V131.749H123.799V133.595H125.645V140.997H123.799V142.843H121.952V144.701H120.095V146.547H118.249V148.393H116.403V150.25H114.545V152.097H125.656V155.789H109.007L109.001 155.806ZM59.1098 173.83H68.7887V177.191H59.1098V173.83ZM3.62823 203.7V200.52C8.03088 200.409 9.33537 199.076 9.65567 196.077H12.7597V221.025H8.85783V202.506C7.77464 203.519 5.85867 203.7 3.6224 203.7H3.62823ZM16.4809 213.99C16.4809 210.56 18.758 208.824 21.1398 207.782V207.712C19.3695 206.774 17.7097 205.185 17.7097 202.372C17.7097 198.074 21.2097 195.582 26.0491 195.582C30.8886 195.582 34.4235 198.074 34.4235 202.372C34.4235 205.185 32.7288 206.774 30.9934 207.712V207.782C33.3403 208.83 35.6523 210.56 35.6523 213.99C35.6523 219.045 31.5001 221.537 26.0491 221.537C20.5982 221.537 16.4809 219.045 16.4809 213.99ZM26.0491 218.288C29.5142 218.288 31.5758 216.628 31.5758 213.774C31.5758 210.921 29.52 209.331 26.0491 209.331C22.5783 209.331 20.5225 210.991 20.5225 213.774C20.5225 216.558 22.5783 218.288 26.0491 218.288ZM26.0491 206.227C28.8678 206.227 30.5275 205.033 30.5275 202.512C30.5275 199.99 28.8678 198.755 26.0491 198.755C23.2305 198.755 21.6057 200.019 21.6057 202.512C21.6057 205.004 23.2655 206.227 26.0491 206.227ZM38.2904 217.094H42.2272V221.031H38.2904V217.094ZM44.0325 208.574C44.0325 201.423 46.9909 195.576 53.9617 195.576C60.9326 195.576 63.8561 201.423 63.8561 208.574C63.8561 215.725 60.9326 221.537 53.9617 221.537C46.9909 221.537 44.0325 215.725 44.0325 208.574ZM53.9617 218.177C58.4401 218.177 59.7737 213.699 59.7737 208.574C59.7737 203.449 58.4401 198.936 53.9617 198.936C49.4834 198.936 48.1148 203.449 48.1148 208.574C48.1148 213.699 49.4484 218.177 53.9617 218.177ZM70.5882 221.031V219.185H68.7421V217.339H66.896V213.629H70.5882V215.487H72.4342V217.333H77.99V215.487H79.8477V209.931H77.99V211.777H70.5882V209.931H68.7421V208.073H66.896V198.825H68.7421V196.979H70.5882V195.121H79.8535V196.979H81.6996V198.825H83.5457V217.339H81.6996V219.185H79.8535V221.031H70.5882ZM77.99 208.073V206.227H79.8477V200.671H77.99V198.825H72.4342V200.671H70.5882V206.227H72.4342V208.073H77.99ZM86.4983 217.094H90.4351V221.031H86.4983V217.094ZM93.5449 221.031V215.487H95.3909V213.629H97.237V211.783H99.0831V209.937H100.941V208.079H102.787V206.233H104.633V204.387H106.491V200.677H104.633V198.831H99.0773V200.677H97.2312V202.535H93.539V198.825H95.3851V196.979H97.2312V195.121H106.497V196.979H108.343V198.825H110.189V206.227H108.343V208.073H106.497V209.931H104.639V211.777H102.793V213.623H100.947V215.481H99.0889V217.327H110.2V221.019H93.5507L93.5449 221.031ZM113.374 221.031V215.487H115.22V213.629H117.066V211.783H118.913V209.937H120.77V208.079H122.616V206.233H124.462V204.387H126.32V200.677H124.462V198.831H118.907V200.677H117.061V202.535H113.368V198.825H115.215V196.979H117.061V195.121H126.326V196.979H128.172V198.825H130.018V206.227H128.172V208.073H126.326V209.931H124.468V211.777H122.622V213.623H120.776V215.481H118.918V217.327H130.03V221.019H113.38L113.374 221.031Z" fill="white"/>
</g>
<defs>
<clipPath id="clip0_137_8223">
<rect width="129.046" height="91.6462" fill="white" transform="translate(0.977539 129.891)"/>
</clipPath>
</defs>
</svg>
